<svg width="8" height="12" viewBox="0 0 8 12" fill="none" xmlns="http://www.w3.org/2000/svg">
<path d="M0.666467 6.46824L6.00662 11.8083C6.13013 11.9319 6.29501 12 6.47081 12C6.64661 12 6.81149 11.9319 6.935 11.8083L7.32827 11.4151C7.58417 11.1589 7.58417 10.7425 7.32827 10.4867L2.84401 6.00249L7.33324 1.51326C7.45675 1.38965 7.52495 1.22487 7.52495 1.04916C7.52495 0.873261 7.45675 0.708482 7.33324 0.584775L6.93998 0.191706C6.81637 0.0680971 6.65159 0 6.47579 0C6.29998 0 6.13511 0.0680971 6.01159 0.191706L0.666467 5.53664C0.542663 5.66064 0.474664 5.8262 0.475054 6.00219C0.474664 6.17888 0.542663 6.34434 0.666467 6.46824Z" fill="#0D263B"/>
</svg>
