<svg xmlns="http://www.w3.org/2000/svg" width="19" height="19" fill="none"><path fill="#696969" d="M18.762 11.056a.567.567 0 0 0-.567-.567h-1.136V2.755A2.758 2.758 0 0 0 14.305 0a2.758 2.758 0 0 0-2.755 2.755v1.034a.567.567 0 0 0 1.135 0V2.755c0-.894.727-1.62 1.62-1.62.894 0 1.621.726 1.621 1.62v7.734H.805a.567.567 0 0 0-.567.567c0 2.56 1.62 4.748 3.887 5.596a2.577 2.577 0 0 0-.706 1.78.567.567 0 0 0 1.134 0c0-.774.591-1.404 1.318-1.404h7.258c.727 0 1.318.63 1.318 1.405a.567.567 0 0 0 1.134 0c0-.693-.27-1.322-.706-1.78a5.982 5.982 0 0 0 3.887-5.597Zm-5.972 4.838H6.21a4.845 4.845 0 0 1-4.804-4.27h16.189a4.845 4.845 0 0 1-4.805 4.27Z"/><path fill="#696969" d="M12.117 5.34a.567.567 0 0 0-.568.568v.491a.567.567 0 1 0 1.135 0v-.491a.567.567 0 0 0-.567-.568ZM12.117 8.063a.567.567 0 0 0-.568.567v.492a.567.567 0 1 0 1.135 0V8.63a.567.567 0 0 0-.567-.567Z"/></svg>