<svg xmlns="http://www.w3.org/2000/svg" width="19" height="19" fill="none"><path fill="#696969" d="M17.237 8.625V4.394c0-.933-.759-1.692-1.692-1.692H3.455c-.933 0-1.692.759-1.692 1.692v4.23A2.407 2.407 0 0 0 0 10.94v3.215c0 .312.253.564.564.564h1.199v1.015a.564.564 0 0 0 1.128 0V14.72h13.218v1.015a.564.564 0 0 0 1.128 0V14.72h1.199a.564.564 0 0 0 .564-.564v-3.214a2.407 2.407 0 0 0-1.763-2.316ZM2.891 4.394c0-.311.253-.564.564-.564h12.09c.311 0 .564.253.564.564v4.143h-1.322V7.405c0-.984-.8-1.785-1.785-1.785h-2.28c-.473 0-.902.184-1.222.485-.32-.3-.75-.485-1.221-.485h-2.28c-.985 0-1.786.8-1.786 1.785v1.132H2.89V4.394Zm10.768 3.011v1.132h-3.595V7.405c0-.362.295-.657.658-.657h2.28c.362 0 .657.295.657.657Zm-4.723 0v1.132H5.34V7.405c0-.362.295-.657.657-.657h2.28c.363 0 .658.295.658.657Zm8.936 6.186H1.128v-2.65c0-.704.572-1.276 1.275-1.276h14.194c.703 0 1.275.572 1.275 1.276v2.65Z"/></svg>