<svg xmlns="http://www.w3.org/2000/svg" width="50" height="50" fill="none"><path fill="#0061DF" d="M31.787 50H18.213C11.75 50 6.494 44.743 6.494 38.281V11.72C6.494 5.257 11.751 0 18.213 0h13.574c6.462 0 11.719 5.257 11.719 11.719V38.28C43.506 44.743 38.249 50 31.787 50ZM18.213 3.906c-4.308 0-7.813 3.505-7.813 7.813V38.28c0 4.308 3.505 7.813 7.813 7.813h13.574c4.308 0 7.813-3.505 7.813-7.813V11.72c0-4.308-3.505-7.813-7.813-7.813H18.213Zm17.48 10.84a1.953 1.953 0 0 0-1.953-1.953H16.26c-2.592.103-2.59 3.804 0 3.906h17.48a1.953 1.953 0 0 0 1.953-1.953ZM35.4 40.234v-9.277c-.103-2.591-3.804-2.59-3.906 0v9.277a1.953 1.953 0 0 0 3.906 0Zm-18.75-11.23a2.441 2.441 0 0 0-2.441 2.441c.129 3.239 4.755 3.238 4.883 0a2.441 2.441 0 0 0-2.442-2.441Zm8.399 0a2.441 2.441 0 0 0-2.442 2.441c.129 3.239 4.755 3.238 4.883 0a2.441 2.441 0 0 0-2.441-2.441Zm-8.399 8.3a2.441 2.441 0 0 0-2.441 2.442c.129 3.239 4.755 3.238 4.883 0a2.441 2.441 0 0 0-2.442-2.441Zm8.399 0a2.441 2.441 0 0 0-2.442 2.442c.129 3.239 4.755 3.238 4.883 0a2.441 2.441 0 0 0-2.441-2.441Zm-6.055-14.257a2.441 2.441 0 0 1-2.441 2.441c-3.239-.128-3.238-4.754 0-4.883a2.441 2.441 0 0 1 2.441 2.442Zm6.055-2.442a2.441 2.441 0 0 0-2.442 2.442c.129 3.238 4.755 3.238 4.883 0a2.441 2.441 0 0 0-2.441-2.442Zm8.398 0a2.441 2.441 0 0 0-2.441 2.442c.128 3.238 4.755 3.238 4.883 0a2.441 2.441 0 0 0-2.442-2.442Z"/></svg>