<svg xmlns="http://www.w3.org/2000/svg" width="15" height="15" fill="none"><path fill="#696969" d="M13.066 1.172H11.72V.469a.469.469 0 0 0-.938 0v.703H4.22V.469a.469.469 0 1 0-.938 0v.703H1.934A1.936 1.936 0 0 0 0 3.105v9.961C0 14.133.867 15 1.934 15h11.132A1.936 1.936 0 0 0 15 13.066v-9.96a1.936 1.936 0 0 0-1.934-1.934Zm-11.132.937H3.28v.47a.469.469 0 1 0 .938 0v-.47h6.562v.47a.469.469 0 0 0 .938 0v-.47h1.347c.55 0 .996.447.996.996V4.22H.938V3.105c0-.549.446-.996.996-.996Zm11.132 11.954H1.934a.997.997 0 0 1-.996-.997v-7.91h13.124v7.91c0 .55-.446.996-.996.996Z"/></svg>