<svg xmlns="http://www.w3.org/2000/svg" width="17" height="14" fill="none"><path fill="#fff" d="M15.166 2.5h-2.71L12.107.754a.94.94 0 0 0-.92-.754h-5.23a.94.94 0 0 0-.92.754L4.687 2.5H1.979c-.775 0-1.406.63-1.406 1.406v8.125c0 .776.63 1.406 1.406 1.406h13.188c.775 0 1.406-.63 1.406-1.406V3.906c0-.775-.63-1.406-1.406-1.406ZM5.956.937h5.232L11.5 2.5H5.644L5.956.937Zm9.679 11.094a.47.47 0 0 1-.47.469H1.979a.47.47 0 0 1-.468-.469V3.906a.47.47 0 0 1 .468-.469h13.188a.47.47 0 0 1 .469.47v8.124Z"/><path fill="#fff" d="M8.572 4.5a3.473 3.473 0 0 0-3.469 3.469 3.473 3.473 0 0 0 3.47 3.468A3.473 3.473 0 0 0 12.04 7.97 3.473 3.473 0 0 0 8.572 4.5Zm0 6a2.534 2.534 0 0 1-2.531-2.531 2.534 2.534 0 0 1 2.531-2.532 2.534 2.534 0 0 1 2.531 2.532 2.534 2.534 0 0 1-2.53 2.531ZM4.572 4.5h-1.5a.469.469 0 0 0 0 .938h1.5a.469.469 0 0 0 0-.938Z"/></svg>