<svg xmlns="http://www.w3.org/2000/svg" width="50" height="50" fill="none"><path fill="#fff" d="M43.238 50a4.254 4.254 0 0 1-2.848-1.103l-4.868-4.284a1.952 1.952 0 1 1 2.58-2.931l4.875 4.29.017.014c.046.042.188.17.42.067.231-.103.231-.294.231-.357V11.714c0-4.306-3.503-7.81-7.81-7.81h-21.67c-4.307 0-7.81 3.504-7.81 7.81v21.672c0 4.306 3.503 7.809 7.81 7.809h15.033c2.59.103 2.588 3.803 0 3.905H14.164C7.705 45.1 2.45 39.845 2.45 33.385v-21.67C2.45 5.254 7.705 0 14.164 0h21.672C42.295 0 47.55 5.255 47.55 11.714v33.982c0 1.72-.976 3.224-2.548 3.924a4.332 4.332 0 0 1-1.764.38Zm-8.99-24.216a1.952 1.952 0 0 0-2.695.599c-3.547 5.095-9.692 4.903-13.203 0a1.952 1.952 0 1 0-3.295 2.096c.146.228 3.727 5.59 9.945 5.59s9.702-5.362 9.847-5.59c.579-.91.31-2.116-.599-2.695Zm-1.634-5.089a1.952 1.952 0 0 1-1.952-1.952v-5.37c.103-2.59 3.802-2.588 3.905 0v5.37a1.952 1.952 0 0 1-1.953 1.952Zm-13.178-1.952v-5.37c-.103-2.59-3.803-2.588-3.905 0v5.37a1.952 1.952 0 1 0 3.905 0Z"/></svg>