<svg xmlns="http://www.w3.org/2000/svg" width="50" height="50" fill="none"><path fill="#0061DF" d="M28.85 49.951H11.696C5.246 49.951 0 44.705 0 38.255v-26.51C0 5.295 5.247.049 11.696.049h26.51c6.45 0 11.697 5.247 11.697 11.696v9.844c-.103 2.586-3.797 2.584-3.9 0v-9.844c0-4.3-3.497-7.798-7.796-7.798H11.696c-4.3 0-7.797 3.498-7.797 7.798v26.51c0 4.3 3.497 7.798 7.797 7.798H28.85c2.586.103 2.584 3.796 0 3.898Zm-2.418-32.739 6.038-6.038a1.95 1.95 0 1 0-2.757-2.757l-6.038 6.038a1.95 1.95 0 0 1-2.762-.005l-5.982-6.028a1.95 1.95 0 1 0-2.767 2.747l5.982 6.027a5.809 5.809 0 0 0 4.14 1.729h.011a5.81 5.81 0 0 0 4.135-1.713Zm-15.2 15.2 4.187-4.247c2.24-2.272 2.234-5.962-.014-8.226l-4.178-4.207a1.95 1.95 0 0 0-2.766 2.747l4.177 4.207c.75.755.752 1.985.005 2.742l-4.187 4.246a1.95 1.95 0 1 0 2.776 2.738Zm32.41 15.564C47.863 42.62 50 38.536 50 35.834c0-5.759-4.678-10.444-10.429-10.444-5.75 0-10.429 4.685-10.429 10.444 0 2.702 2.14 6.787 6.358 12.142a5.153 5.153 0 0 0 4.071 1.976c1.599 0 3.083-.72 4.072-1.976Zm-1.53-1.206Zm3.99-10.936c0 1.315-1.451 4.562-5.522 9.73a1.278 1.278 0 0 1-2.018 0c-4.07-5.168-5.521-8.415-5.521-9.73 0-3.609 2.93-6.545 6.53-6.545s6.53 2.936 6.53 6.545Zm-34.309 6.32c-1.711.01-2.607-2.106-1.378-3.328l28.363-28.362a1.95 1.95 0 1 1 2.756 2.757L13.172 41.583c-.38.38-.88.571-1.379.571Zm25.342-6.53a2.437 2.437 0 0 0 2.436 2.436c3.232-.128 3.231-4.745 0-4.873a2.437 2.437 0 0 0-2.436 2.437Z"/></svg>