<svg xmlns="http://www.w3.org/2000/svg" width="50" height="50" fill="none"><path fill="#0061DF" d="M38.281 49.996H11.72C5.257 49.996 0 44.74 0 38.278V21.845c0-3.632 1.724-7.115 4.612-9.318l13.281-10.13a11.747 11.747 0 0 1 14.214 0l4.221 3.217V3.121c.103-2.591 3.804-2.589 3.906 0v6.437a1.953 1.953 0 0 1-3.137 1.553l-7.359-5.607a7.832 7.832 0 0 0-9.476 0L6.981 15.633a7.857 7.857 0 0 0-3.075 6.21v16.434c0 4.308 3.505 7.812 7.813 7.812H38.28c4.308 0 7.813-3.505 7.813-7.812V21.845c0-2.451-1.137-4.781-3.04-6.233a1.953 1.953 0 1 1 2.369-3.106C48.289 14.692 50 18.183 50 21.845v16.433c0 6.461-5.257 11.718-11.719 11.718ZM21.094 22.555a2.441 2.441 0 0 0-2.442 2.441c.13 3.24 4.755 3.237 4.883 0a2.441 2.441 0 0 0-2.441-2.441Zm10.254 2.441c-.13 3.24-4.755 3.237-4.883 0 .129-3.239 4.755-3.236 4.883 0Zm-7.813 7.813c-.129 3.24-4.755 3.237-4.883 0 .13-3.24 4.755-3.237 4.883 0Zm7.813 0c-.13 3.24-4.755 3.237-4.883 0 .129-3.24 4.755-3.237 4.883 0Z"/></svg>