<svg xmlns="http://www.w3.org/2000/svg" width="60" height="60" fill="none"><g fill="#fff" clip-path="url(#a)"><path d="M49.246 45.396C55.176 45.396 60 40.593 60 34.69c0-3.995-2.27-7.657-5.767-9.487.641-1.393.976-2.912.976-4.46 0-5.905-4.824-10.708-10.753-10.708-2.6 0-5.043.915-6.956 2.536V6.978a1.17 1.17 0 0 0 .938-1.144V1.167A1.17 1.17 0 0 0 37.266 0H1.172A1.17 1.17 0 0 0 0 1.167v4.667c0 .564.403 1.035.938 1.144v51.596a1.17 1.17 0 0 0 1.171 1.166h45.934c.347 0 .675-.152.898-.417a4.768 4.768 0 0 0 1.119-3.064c0-2.51-1.958-4.573-4.432-4.758v-6.728c1.155.41 2.38.623 3.618.623Zm-4.79-33.028c4.637 0 8.41 3.756 8.41 8.374 0 1.558-.434 3.079-1.253 4.398a1.162 1.162 0 0 0 .585 1.706c3.265 1.219 5.458 4.371 5.458 7.843 0 4.617-3.772 8.374-8.41 8.374a8.452 8.452 0 0 1-3.618-.814v-3.961l5.319-5.297a1.163 1.163 0 0 0 0-1.65 1.176 1.176 0 0 0-1.657 0l-3.662 3.647V23.842a1.17 1.17 0 0 0-1.172-1.167 1.17 1.17 0 0 0-1.172 1.167v5.545l-.97-.965a1.176 1.176 0 0 0-1.657 0 1.164 1.164 0 0 0 0 1.65l2.627 2.615V42.25a8.455 8.455 0 0 1-5.784.533V16.034a8.377 8.377 0 0 1 6.956-3.666ZM43.284 50.47a6.417 6.417 0 0 0-5.784-2.024v-3.27a10.828 10.828 0 0 0 5.784-.403v5.697ZM3.28 7h10.625a1.17 1.17 0 0 0 1.172-1.166 1.17 1.17 0 0 0-1.172-1.167H2.344V2.334h33.75v2.333H24.453a1.17 1.17 0 0 0-1.172 1.167 1.17 1.17 0 0 0 1.172 1.167h10.703v42.312a6.403 6.403 0 0 0-2.165 2.2c-.06.006-.12.014-.178.023v-5.797a1.17 1.17 0 0 0-1.172-1.167h-5.157a1.17 1.17 0 0 0-1.172 1.167v6.534a1.17 1.17 0 0 0 1.172 1.166h3.153a4.734 4.734 0 0 0-.787 3.968H3.281V7ZM30.47 51.107h-2.813v-4.2h2.813v4.2Zm17.247 5.153c0 .402-.1.797-.288 1.148H31.34a2.437 2.437 0 0 1-.288-1.148 2.447 2.447 0 0 1 2.596-2.435c.49.028.945-.25 1.142-.697a4.075 4.075 0 0 1 3.73-2.43 4.063 4.063 0 0 1 3.866 2.78 1.175 1.175 0 0 0 1.685.651c.364-.201.777-.308 1.195-.308 1.35 0 2.45 1.094 2.45 2.439Z"/><path d="M11.953 44.572H6.797a1.17 1.17 0 0 0-1.172 1.167v6.534a1.17 1.17 0 0 0 1.172 1.166h5.156a1.17 1.17 0 0 0 1.172-1.166v-6.534a1.17 1.17 0 0 0-1.172-1.167Zm-1.172 6.534H7.97v-4.2h2.812v4.2ZM21.797 44.572H16.64a1.17 1.17 0 0 0-1.172 1.167v6.534a1.17 1.17 0 0 0 1.172 1.166h5.156a1.17 1.17 0 0 0 1.172-1.166v-6.534a1.17 1.17 0 0 0-1.172-1.167Zm-1.172 6.534h-2.813v-4.2h2.813v4.2ZM11.953 33.37H6.797a1.17 1.17 0 0 0-1.172 1.167v6.535a1.17 1.17 0 0 0 1.172 1.166h5.156a1.17 1.17 0 0 0 1.172-1.166v-6.535a1.17 1.17 0 0 0-1.172-1.166Zm-1.172 6.535H7.97v-4.2h2.812v4.2ZM21.797 33.37H16.64a1.17 1.17 0 0 0-1.172 1.167v6.535a1.17 1.17 0 0 0 1.172 1.166h5.156a1.17 1.17 0 0 0 1.172-1.166v-6.535a1.17 1.17 0 0 0-1.172-1.166Zm-1.172 6.535h-2.813v-4.2h2.813v4.2ZM26.484 42.238h5.157a1.17 1.17 0 0 0 1.172-1.166v-6.535a1.17 1.17 0 0 0-1.172-1.166h-5.157a1.17 1.17 0 0 0-1.172 1.166v6.535a1.17 1.17 0 0 0 1.172 1.166Zm1.172-6.534h2.813v4.2h-2.813v-4.2ZM11.953 22.17H6.797a1.17 1.17 0 0 0-1.172 1.166v6.534a1.17 1.17 0 0 0 1.172 1.167h5.156a1.17 1.17 0 0 0 1.172-1.167v-6.534a1.17 1.17 0 0 0-1.172-1.167Zm-1.172 6.533H7.97v-4.2h2.812v4.2ZM21.797 22.17H16.64a1.17 1.17 0 0 0-1.172 1.166v6.534a1.17 1.17 0 0 0 1.172 1.167h5.156a1.17 1.17 0 0 0 1.172-1.167v-6.534a1.17 1.17 0 0 0-1.172-1.167Zm-1.172 6.533h-2.813v-4.2h2.813v4.2ZM26.484 31.037h5.157a1.17 1.17 0 0 0 1.172-1.167v-6.534a1.17 1.17 0 0 0-1.172-1.167h-5.157a1.17 1.17 0 0 0-1.172 1.167v6.534a1.17 1.17 0 0 0 1.172 1.167Zm1.172-6.534h2.813v4.2h-2.813v-4.2ZM11.953 10.968H6.797a1.17 1.17 0 0 0-1.172 1.167v6.534a1.17 1.17 0 0 0 1.172 1.167h5.156a1.17 1.17 0 0 0 1.172-1.167v-6.534a1.17 1.17 0 0 0-1.172-1.167Zm-1.172 6.534H7.97v-4.2h2.812v4.2ZM21.797 10.968H16.64a1.17 1.17 0 0 0-1.172 1.167v6.534a1.17 1.17 0 0 0 1.172 1.167h5.156a1.17 1.17 0 0 0 1.172-1.167v-6.534a1.17 1.17 0 0 0-1.172-1.167Zm-1.172 6.534h-2.813v-4.2h2.813v4.2ZM26.484 19.836h5.157a1.17 1.17 0 0 0 1.172-1.167v-6.534a1.17 1.17 0 0 0-1.172-1.167h-5.157a1.17 1.17 0 0 0-1.172 1.167v6.534a1.17 1.17 0 0 0 1.172 1.167Zm1.172-6.534h2.813v4.2h-2.813v-4.2ZM19.18 7c.308 0 .61-.124.828-.341.218-.217.344-.518.344-.825a1.172 1.172 0 0 0-2.344 0 1.168 1.168 0 0 0 1.172 1.167Z"/></g><defs><clipPath id="a"><path fill="#fff" d="M0 0h60v59.74H0z"/></clipPath></defs></svg>