<svg xmlns="http://www.w3.org/2000/svg" width="60" height="60" fill="none"><g fill="#fff" clip-path="url(#a)"><path d="M48.75 3.15H31.172A1.17 1.17 0 0 0 30 4.317a1.17 1.17 0 0 0 1.172 1.167h16.406v7.662a1.17 1.17 0 0 0 1.172 1.167 1.17 1.17 0 0 0 1.172-1.167V4.317A1.17 1.17 0 0 0 48.75 3.15ZM27.313 3.492a1.182 1.182 0 0 0-.829-.342 1.173 1.173 0 0 0-1.172 1.167 1.172 1.172 0 0 0 2.344 0c0-.307-.125-.608-.343-.825Z"/><path d="M44.063 7.818H15.936a1.17 1.17 0 0 0-1.171 1.166v9.335a1.17 1.17 0 0 0 1.171 1.167h28.126a1.17 1.17 0 0 0 1.171-1.167V8.984a1.17 1.17 0 0 0-1.172-1.166Zm-1.172 9.334H17.109v-7h25.782v7Z"/><path d="M58.828 49.582h-5.156V27.887h5.156c.383 0 .742-.187.961-.5.22-.313.271-.713.139-1.07L56.63 17.41a1.172 1.172 0 0 0-1.1-.764h-6.1c-.49 0-.93.305-1.1.764l-1.632 4.41H12.422V5.483h8.73a1.17 1.17 0 0 0 1.172-1.167 1.17 1.17 0 0 0-1.172-1.167H11.25a1.17 1.17 0 0 0-1.172 1.167v16.557a4.95 4.95 0 0 0-3.691-1.648c-2.731 0-4.953 2.212-4.953 4.931 0 .7.145 1.377.424 2A6.36 6.36 0 0 0 0 30.64c0 3.107 2.251 5.7 5.215 6.25v1.732H1.172A1.17 1.17 0 0 0 0 39.788v15.635a1.17 1.17 0 0 0 1.172 1.167h10.43c.353 0 .67-.157.885-.404a3.738 3.738 0 0 0 1.693.404h31.64c.162 0 .32-.011.477-.031.086.02.174.03.266.03h12.265A1.17 1.17 0 0 0 60 55.424V50.75a1.17 1.17 0 0 0-1.172-1.167Zm-8.58-30.602h4.466l2.433 6.573h-4.59c-.02 0-.038-.003-.057-.003-.02 0-.038.002-.057.003h-4.63l2.434-6.573ZM5.214 30.45v4.04a4.034 4.034 0 0 1-2.871-3.851c0-1.296.634-2.521 1.697-3.277a1.166 1.166 0 0 0 .256-1.65c-.34-.45-.52-.989-.52-1.555a2.606 2.606 0 0 1 2.61-2.598 2.606 2.606 0 0 1 2.608 2.598c0 .567-.18 1.104-.519 1.556a1.163 1.163 0 0 0 .257 1.649 4.032 4.032 0 0 1 1.696 3.277 4.034 4.034 0 0 1-2.87 3.852v-4.04a1.17 1.17 0 0 0-1.173-1.167 1.17 1.17 0 0 0-1.171 1.167Zm5.215 23.806H2.344V40.955h8.086v13.301Zm36.797-1.4c0 .772-.631 1.4-1.406 1.4H14.18a1.405 1.405 0 0 1-1.407-1.4V45.39c0-1.158.947-2.1 2.11-2.1 1.163 0 2.109.942 2.109 2.1v3.733a1.17 1.17 0 0 0 1.172 1.167h23.672a1.17 1.17 0 0 0 1.172-1.167V45.39c0-1.158.946-2.1 2.11-2.1 1.163 0 2.109.942 2.109 2.1v7.467Zm-27.897-7.7h21.34a4.402 4.402 0 0 0-.006.233v2.567H19.336v-2.567c0-.079-.002-.156-.006-.234Zm-.82-2.334a4.467 4.467 0 0 0-2.456-1.71V35.08a2.418 2.418 0 0 1 2.42-2.41h23.164a2.418 2.418 0 0 1 2.42 2.41v6.003a4.464 4.464 0 0 0-2.568 1.739H18.51Zm27.892-1.678V35.08c0-2.615-2.137-4.743-4.764-4.743H18.476c-2.627 0-4.764 2.128-4.764 4.743v6.032c-.33.09-.644.215-.938.373v-1.697a1.17 1.17 0 0 0-1.172-1.167H7.558v-1.733c2.964-.55 5.215-3.142 5.215-6.25a6.36 6.36 0 0 0-1.857-4.48c.279-.624.423-1.301.423-2v-.005h34.495l-.8 2.163c-.133.358-.082.758.137 1.071.22.313.579.5.962.5h5.195v21.695H49.57v-4.193c0-2-1.337-3.695-3.168-4.245Zm11.254 13.112h-8.36a3.7 3.7 0 0 0 .275-1.4v-.94h8.085v2.34Z"/><path d="M34.578 35.004h-5.313a1.17 1.17 0 0 0-1.172 1.167 1.17 1.17 0 0 0 1.172 1.167h5.313a1.17 1.17 0 0 0 1.171-1.167 1.17 1.17 0 0 0-1.172-1.167ZM25.985 35.346a1.184 1.184 0 0 0-.83-.342 1.173 1.173 0 0 0-1.172 1.167 1.172 1.172 0 0 0 2.344 0c0-.307-.124-.608-.342-.825Z"/></g><defs><clipPath id="a"><path fill="#fff" d="M0 0h60v59.74H0z"/></clipPath></defs></svg>