<svg xmlns="http://www.w3.org/2000/svg" width="60" height="60" fill="none"><g fill="#fff" clip-path="url(#a)"><path d="M35 22.725 57.025 27.1C58.8 27.475 60 28.975 60 30.75v25.5A3.745 3.745 0 0 1 56.25 60h-22.5c.7 0 1.25-.55 1.25-1.25V57.5h21.25c.675 0 1.25-.55 1.25-1.25v-25.5c0-.575-.4-1.1-.975-1.225L35 25.275v-2.55Z"/><path d="M48.75 35c.7 0 1.25.55 1.25 1.25s-.55 1.25-1.25 1.25h-5c-.7 0-1.25-.55-1.25-1.25S43.05 35 43.75 35h5ZM48.75 42.5c.7 0 1.25.55 1.25 1.25S49.45 45 48.75 45h-5c-.7 0-1.25-.55-1.25-1.25s.55-1.25 1.25-1.25h5ZM48.75 50c.7 0 1.25.55 1.25 1.25s-.55 1.25-1.25 1.25h-5c-.7 0-1.25-.55-1.25-1.25S43.05 50 43.75 50h5ZM35 58.75c0 .7-.55 1.25-1.25 1.25s-1.25-.55-1.25-1.25v-35c0-.375.175-.725.45-.975.3-.225.675-.325 1.05-.25l1 .2V58.75Z"/><path d="M32.5 57.5v1.25c0 .7.55 1.25 1.25 1.25h-10c.7 0 1.25-.55 1.25-1.25V57.5h7.5ZM26.25 12.5c.7 0 1.25.55 1.25 1.25S26.95 15 26.25 15h-5c-.7 0-1.25-.55-1.25-1.25s.55-1.25 1.25-1.25h5ZM27.5 21.25c0 .7-.55 1.25-1.25 1.25h-5c-.7 0-1.25-.55-1.25-1.25S20.55 20 21.25 20h5c.7 0 1.25.55 1.25 1.25ZM26.25 27.5c.7 0 1.25.55 1.25 1.25S26.95 30 26.25 30h-5c-.7 0-1.25-.55-1.25-1.25s.55-1.25 1.25-1.25h5ZM26.25 35c.7 0 1.25.55 1.25 1.25s-.55 1.25-1.25 1.25h-5c-.7 0-1.25-.55-1.25-1.25S20.55 35 21.25 35h5ZM15 36.25c0 .7-.55 1.25-1.25 1.25h-5c-.7 0-1.25-.55-1.25-1.25S8.05 35 8.75 35h5c.7 0 1.25.55 1.25 1.25ZM13.75 12.5c.7 0 1.25.55 1.25 1.25S14.45 15 13.75 15h-5c-.7 0-1.25-.55-1.25-1.25s.55-1.25 1.25-1.25h5ZM13.75 20c.7 0 1.25.55 1.25 1.25s-.55 1.25-1.25 1.25h-5c-.7 0-1.25-.55-1.25-1.25S8.05 20 8.75 20h5ZM13.75 27.5c.7 0 1.25.55 1.25 1.25S14.45 30 13.75 30h-5c-.7 0-1.25-.55-1.25-1.25s.55-1.25 1.25-1.25h5ZM22.5 46.25c0-.7-.575-1.25-1.25-1.25h-7.5c-.7 0-1.25.55-1.25 1.25V57.5H10V46.25a3.745 3.745 0 0 1 3.75-3.75h7.5A3.745 3.745 0 0 1 25 46.25V57.5h-2.5V46.25Z"/><path d="M12.5 57.5H25v1.25c0 .7-.55 1.25-1.25 1.25h-12.5c-.7 0-1.25-.55-1.25-1.25V57.5h2.5Z"/><path d="M4.375.5 31.85 4.675c1.825.3 3.15 1.85 3.15 3.7v14.35l-1-.2a1.314 1.314 0 0 0-1.05.25c-.275.25-.45.6-.45.975V8.375c0-.625-.45-1.15-1.05-1.25L3.975 2.975c-.075-.025-.15-.025-.225-.025-.3 0-.575.1-.8.3-.3.25-.45.575-.45.95v52.05c0 .7.575 1.25 1.25 1.25H10v1.25c0 .7.55 1.25 1.25 1.25h-7.5A3.745 3.745 0 0 1 0 56.25V4.2c0-1.1.475-2.15 1.325-2.85A3.753 3.753 0 0 1 4.375.5Z"/></g><defs><clipPath id="a"><path fill="#fff" d="M0 0h60v60H0z"/></clipPath></defs></svg>