<svg xmlns="http://www.w3.org/2000/svg" width="60" height="60" fill="none"><g fill="#fff" clip-path="url(#a)"><path d="M25.313 24.14c-3.405 0-5.86 2.85-5.86 6.31 0 3.803 2.927 6.296 7.358 10.071.772.658 1.57 1.338 2.418 2.08a1.169 1.169 0 0 0 1.543 0c.848-.742 1.646-1.422 2.418-2.08 4.43-3.775 7.357-6.268 7.357-10.07 0-3.461-2.455-6.31-5.86-6.31-2.327 0-3.803 1.329-4.687 2.613-.883-1.284-2.36-2.613-4.687-2.613Zm5.818 5.584c.008-.032.919-3.24 3.557-3.24 2.004 0 3.515 1.705 3.515 3.966 0 2.72-2.459 4.816-6.533 8.287-.54.46-1.094.932-1.67 1.43-.576-.498-1.129-.97-1.67-1.43-4.073-3.471-6.533-5.566-6.533-8.287 0-2.26 1.512-3.965 3.516-3.965 2.605 0 3.517 3.097 3.558 3.243a1.172 1.172 0 0 0 2.26-.004ZM14.766 13.125a1.172 1.172 0 1 0 0-2.343 1.172 1.172 0 0 0 0 2.343Z"/><path d="M52.474 27.871a4.645 4.645 0 0 0 2.839.957A4.693 4.693 0 0 0 60 24.141a4.65 4.65 0 0 0-1.845-3.728l-5.89-4.526V1.172C52.266.525 51.742 0 51.095 0h-7.031c-.648 0-1.172.525-1.172 1.172v7.51L32.839.958A4.645 4.645 0 0 0 30 0a4.65 4.65 0 0 0-2.842.96l-8.922 6.858a1.172 1.172 0 1 0 1.428 1.858l8.918-6.854c.41-.313.9-.478 1.418-.478.518 0 1.008.165 1.414.475l25.317 19.456c.588.447.925 1.128.925 1.866a2.346 2.346 0 0 1-3.757 1.87L30.715 8.178a1.172 1.172 0 0 0-1.388-.03c-.053.037-23.219 17.857-23.221 17.859a2.344 2.344 0 0 1-1.657.465c-1.16-.113-1.79-.659-2.04-1.77-.212-.932.119-1.863.865-2.431l8.03-6.172a1.172 1.172 0 1 0-1.428-1.858L1.85 20.41C.368 21.54-.293 23.382.122 25.22c.476 2.102 1.932 3.375 4.1 3.585a4.678 4.678 0 0 0 3.305-.934l-.002-.002.21-.158v16.077a7.006 7.006 0 0 0-5.25 5.588A5.852 5.852 0 0 0 .001 54.14C0 57.371 2.629 60 5.86 60h48.28C57.37 60 60 57.37 60 54.14a5.852 5.852 0 0 0-2.485-4.764 7.006 7.006 0 0 0-5.25-5.588V27.71l.208.16Zm-7.24-25.527h4.688v11.742l-4.687-3.602v-8.14ZM18.75 57.656H5.86a3.52 3.52 0 0 1-3.516-3.515c0-1.253.691-2.42 1.803-3.047.334-.189.555-.528.591-.91.23-2.406 2.221-4.247 4.638-4.247 1.509 0 2.937.744 3.82 1.988.276.39.761.573 1.227.463.3-.072.566-.107.812-.107a3.518 3.518 0 0 1 3.515 3.474c-.1.705.277 1.187.766 1.357a2.339 2.339 0 0 1 1.578 2.2 2.347 2.347 0 0 1-2.344 2.344Zm20.182-6.404c-.724.41-1.322 1.001-1.738 1.717H22.806a4.657 4.657 0 0 0-1.737-1.717c-.02-.21-.051-.42-.093-.628h18.049a5.97 5.97 0 0 0-.093.628Zm-16.123 6.404c.4-.69.629-1.49.629-2.344h13.125c0 .854.229 1.654.629 2.344H22.809Zm32.454-7.472c.036.382.257.721.59.91a3.515 3.515 0 0 1 1.803 3.047 3.52 3.52 0 0 1-3.515 3.515H41.25a2.346 2.346 0 0 1-2.344-2.344c0-1.028.672-1.884 1.578-2.2.493-.172.865-.656.766-1.357a3.518 3.518 0 0 1 3.515-3.474c.246 0 .512.035.812.107.465.11.951-.072 1.228-.463a4.696 4.696 0 0 1 3.82-1.987c2.415 0 4.407 1.838 4.637 4.246Zm-5.341-6.553a7.048 7.048 0 0 0-4.555 2.342 5.285 5.285 0 0 0-.601-.036 5.881 5.881 0 0 0-4.685 2.344H19.92a5.881 5.881 0 0 0-4.685-2.344c-.197 0-.397.012-.602.036a7.047 7.047 0 0 0-4.554-2.342V25.909C11.779 24.6 28.043 12.092 30 10.587l19.922 15.322V43.63Z"/></g><defs><clipPath id="a"><path fill="#fff" d="M0 0h60v60H0z"/></clipPath></defs></svg>