<svg xmlns="http://www.w3.org/2000/svg" width="60" height="60" fill="none"><path fill="#fff" d="M7.5 27.188H15c.518 0 .938-.42.938-.938v-5.625a.937.937 0 0 0-.938-.938H7.5a.937.937 0 0 0-.938.938v5.625c0 .518.42.938.938.938Zm6.563-1.875h-1.876v-3.75h1.876v3.75Zm-5.626-3.75h1.876v3.75H8.437v-3.75ZM18.75 27.188h7.5c.517 0 .938-.42.938-.938v-5.625a.937.937 0 0 0-.938-.938h-7.5a.937.937 0 0 0-.938.938v5.625c0 .518.42.938.938.938Zm6.563-1.875h-1.875v-3.75h1.875v3.75Zm-5.625-3.75h1.875v3.75h-1.875v-3.75Z"/><path fill="#fff" d="m58.394 30.04-27.456-8.238v-1.177H37.5a3.754 3.754 0 0 0 3.75-3.75 3.757 3.757 0 0 0-2.814-3.632c.002-.04.002-.079.002-.118a4.693 4.693 0 0 0-4.688-4.688 4.674 4.674 0 0 0-4.297 2.844 4.644 4.644 0 0 0-1.431.415L17.538 1.212a.936.936 0 0 0-1.326 0L3.087 14.337a.933.933 0 0 0-.275.663v38.438h-.937a.937.937 0 0 0-.938.937v3.75c0 .518.42.938.938.938h56.25c.517 0 .938-.42.938-.938v-3.75a.937.937 0 0 0-.938-.938h-.938V36.323l.669.2a.943.943 0 0 0 .829-.145.94.94 0 0 0 .377-.753v-4.688a.939.939 0 0 0-.668-.898ZM29.063 15.937v13.124H4.688V15.938h24.375Zm0 18.75h-1.875v-3.75h1.875v3.75Zm-18.75-3.75v3.75H8.437v-3.75h1.876Zm1.874 0h1.876v3.75h-1.876v-3.75Zm3.75 0h1.876v3.75h-1.875v-3.75Zm3.75 0h1.875v3.75h-1.875v-3.75Zm3.75 0h1.875v3.75h-1.875v-3.75Zm-16.875 0v3.75H4.688v-3.75h1.875Zm22.5 5.625v1.874H4.688v-1.874h24.375Zm.877-23.44c.031.004.12.013.15.014.454.043.838-.275.948-.705a2.805 2.805 0 0 1 2.713-2.12 2.816 2.816 0 0 1 2.813 2.813c0 .212-.034.438-.106.713a.935.935 0 0 0 .175.825.909.909 0 0 0 .868.337c1.034 0 1.875.84 1.875 1.875 0 1.034-.84 1.875-1.875 1.875h-6.563V15a.933.933 0 0 0-.274-.663l-1.168-1.168c.149-.028.298-.046.444-.047ZM16.875 3.2l10.862 10.861H6.013L16.875 3.201ZM4.687 40.312h24.375v13.126h-5.625V45a.937.937 0 0 0-.937-.938H11.25a.937.937 0 0 0-.938.938v8.438H4.689V40.312Zm7.5 13.126v-7.5h3.75v7.5h-3.75Zm5.626-7.5h3.75v7.5h-3.75v-7.5Zm39.374 11.25H2.813v-1.876h54.374v1.876Zm-5.624-15H34.686v-1.876h16.876v1.876Zm-16.876 1.874h16.876v1.876H34.686v-1.876Zm0 3.75h16.876v5.626H34.686v-5.626Zm20.626 5.626h-1.876V39.374a.937.937 0 0 0-.937-.938H33.75a.937.937 0 0 0-.938.938v14.063h-1.874v-24.99l24.375 7.312v17.678Zm1.874-19.073-26.25-7.875v-2.73l26.25 7.875v2.73ZM46.875 13.125h7.5a4.693 4.693 0 0 0 4.688-4.688c0-2.4-1.813-4.383-4.14-4.655A4.673 4.673 0 0 0 50.624.937a4.693 4.693 0 0 0-4.686 4.806 3.757 3.757 0 0 0-2.814 3.632 3.754 3.754 0 0 0 3.75 3.75Zm-.058-5.628c.032.005.126.015.157.016a.901.901 0 0 0 .768-.35.936.936 0 0 0 .175-.825 2.812 2.812 0 0 1-.105-.713 2.816 2.816 0 0 1 2.813-2.813c1.279 0 2.394.872 2.713 2.12.11.43.508.728.948.705.05-.002.1-.007.089-.012a2.816 2.816 0 0 1 2.813 2.813 2.816 2.816 0 0 1-2.813 2.812h-7.5A1.877 1.877 0 0 1 45 9.375c0-1.034.84-1.875 1.817-1.878Z"/></svg>