<svg xmlns="http://www.w3.org/2000/svg" width="16" height="16" fill="none"><path fill="#0061DF" d="M4.875 8c0 .345.28.625.625.625h1.875V10.5a.625.625 0 1 0 1.25 0V8.625H10.5a.625.625 0 1 0 0-1.25H8.625V5.5a.625.625 0 1 0-1.25 0v1.875H5.5A.625.625 0 0 0 4.875 8ZM5.013 1.931l.808-.335A.625.625 0 0 0 5.343.442l-.809.334a.625.625 0 0 0 .479 1.155Z"/><path fill="#0061DF" d="M8 0a.625.625 0 1 0 0 1.25c3.73 0 6.75 3.019 6.75 6.75 0 3.73-3.019 6.75-6.75 6.75A6.746 6.746 0 0 1 1.25 8 .625.625 0 1 0 0 8c0 4.421 3.578 8 8 8 4.421 0 8-3.578 8-8 0-4.421-3.578-8-8-8ZM2.918 3.536l.618-.618a.625.625 0 1 0-.884-.884l-.618.618a.625.625 0 1 0 .884.884ZM.78 6.16c.32.132.685-.02.816-.339l.335-.808a.625.625 0 0 0-1.155-.479l-.334.809a.625.625 0 0 0 .338.816Z"/></svg>