<svg xmlns="http://www.w3.org/2000/svg" width="16" height="16" fill="none"><path fill="#696969" d="M13.25 2H10.5v-.5C10.5.673 9.827 0 9 0H7c-.827 0-1.5.673-1.5 1.5V2H2.75c-.69 0-1.25.56-1.25 1.25V5a.5.5 0 0 0 .5.5h.273l.432 9.071A1.498 1.498 0 0 0 4.203 16h7.593c.803 0 1.46-.627 1.499-1.429l.432-9.071H14a.5.5 0 0 0 .5-.5V3.25c0-.69-.56-1.25-1.25-1.25ZM6.5 1.5A.5.5 0 0 1 7 1h2a.5.5 0 0 1 .5.5V2h-3v-.5Zm-4 1.75A.25.25 0 0 1 2.75 3h10.5a.25.25 0 0 1 .25.25V4.5h-11V3.25Zm9.796 11.274a.5.5 0 0 1-.5.476H4.205a.5.5 0 0 1-.5-.476L3.274 5.5h9.452l-.43 9.024Z"/><path fill="#696969" d="M8 14a.5.5 0 0 0 .5-.5V7a.5.5 0 0 0-1 0v6.5a.5.5 0 0 0 .5.5ZM10.5 14a.5.5 0 0 0 .5-.5V7a.5.5 0 0 0-1 0v6.5a.5.5 0 0 0 .5.5ZM5.5 14a.5.5 0 0 0 .5-.5V7a.5.5 0 0 0-1 0v6.5a.5.5 0 0 0 .5.5Z"/></svg>