<svg xmlns="http://www.w3.org/2000/svg" width="20" height="20" fill="none"><g fill="#0061DF" clip-path="url(#a)"><path d="M4.274 3.48H.588a.588.588 0 0 1 0-1.176h3.686a.588.588 0 0 1 0 1.176Z"/><path d="M6.38 5.586a2.697 2.697 0 0 1-2.694-2.694A2.697 2.697 0 0 1 6.38.197a2.697 2.697 0 0 1 2.695 2.695A2.697 2.697 0 0 1 6.38 5.586Zm0-4.212a1.52 1.52 0 0 0-1.518 1.518c0 .837.681 1.518 1.518 1.518a1.52 1.52 0 0 0 1.518-1.518A1.52 1.52 0 0 0 6.38 1.374ZM19.412 3.48H10.62a.588.588 0 0 1 0-1.176h8.792a.588.588 0 0 1 0 1.176ZM14.278 12.694A2.697 2.697 0 0 1 11.584 10a2.697 2.697 0 0 1 2.694-2.694A2.697 2.697 0 0 1 16.972 10a2.697 2.697 0 0 1-2.694 2.694Zm0-4.212A1.52 1.52 0 0 0 12.76 10a1.52 1.52 0 0 0 1.518 1.518A1.52 1.52 0 0 0 15.796 10a1.52 1.52 0 0 0-1.518-1.518ZM10.038 10.588H.588a.588.588 0 0 1 0-1.176h9.45a.588.588 0 0 1 0 1.176Z"/><path d="M19.412 10.588h-3.028a.588.588 0 0 1 0-1.176h3.028a.588.588 0 0 1 0 1.176ZM5.722 19.803a2.697 2.697 0 0 1-2.694-2.695 2.697 2.697 0 0 1 2.694-2.694 2.697 2.697 0 0 1 2.694 2.694 2.697 2.697 0 0 1-2.694 2.695Zm0-4.212a1.52 1.52 0 0 0-1.518 1.517c0 .837.681 1.518 1.518 1.518a1.52 1.52 0 0 0 1.518-1.518 1.52 1.52 0 0 0-1.518-1.517ZM19.412 17.697h-9.45a.588.588 0 0 1 0-1.177h9.45a.588.588 0 0 1 0 1.177Z"/><path d="M3.616 17.697H.588a.588.588 0 0 1 0-1.177h3.028a.588.588 0 0 1 0 1.177Z"/></g><defs><clipPath id="a"><path fill="#fff" d="M0 0h20v20H0z"/></clipPath></defs></svg>