<svg xmlns="http://www.w3.org/2000/svg" width="20" height="20" fill="none"><g clip-path="url(#a)"><path fill="#0061DF" d="m19.8 7.869-6.714-5.064a.501.501 0 0 0-.604 0l-1.104.833-1.104-.833a.502.502 0 0 0-.604 0l-1.076.812-1.076-.812a.501.501 0 0 0-.604 0L.199 7.87a.502.502 0 0 0-.199.4v8.525c0 .277.225.502.502.502H19.498a.502.502 0 0 0 .502-.502V8.269a.502.502 0 0 0-.2-.4Zm-.803 8.424h-1.808V8.269a.502.502 0 0 0-.2-.4l-4.778-3.603.573-.432 6.213 4.685v7.774Zm-4.565 0V8.269a.502.502 0 0 0-.2-.4L9.428 4.245l.546-.41 6.212 4.684v7.774h-1.753Zm-6.395 0H6.395v-3.638h1.642v3.637Zm1.003 0v-4.14a.502.502 0 0 0-.501-.5H5.893a.502.502 0 0 0-.502.5v4.14H1.003V8.518l6.213-4.685 6.213 4.685v7.773H9.04Z"/></g><defs><clipPath id="a"><path fill="#fff" d="M0 0h20v20H0z"/></clipPath></defs></svg>