<svg xmlns="http://www.w3.org/2000/svg" width="13" height="13" fill="none"><path fill="#fff" d="M6.125 3.605c-.565 0-1.094.146-1.586.438a3.153 3.153 0 0 0-1.148 1.148c-.274.474-.41.994-.41 1.559s.136 1.094.41 1.586a3.46 3.46 0 0 0 1.148 1.148c.492.274 1.02.41 1.586.41.565 0 1.085-.136 1.559-.41a3.153 3.153 0 0 0 1.148-1.148c.292-.492.438-1.02.438-1.586 0-.565-.146-1.085-.438-1.559a2.9 2.9 0 0 0-1.148-1.148 2.917 2.917 0 0 0-1.559-.438Zm0 5.196c-.565 0-1.048-.2-1.45-.602a1.975 1.975 0 0 1-.6-1.449c0-.565.2-1.048.6-1.45a1.975 1.975 0 0 1 1.45-.6c.565 0 1.048.2 1.45.6.4.402.6.885.6 1.45s-.2 1.048-.6 1.45a1.975 1.975 0 0 1-1.45.6Zm4.02-5.332a.82.82 0 0 1-.247.52.624.624 0 0 1-.492.218.71.71 0 0 1-.52-.219.71.71 0 0 1-.218-.52c0-.2.073-.373.219-.519a.71.71 0 0 1 .52-.219c.2 0 .373.073.519.22a.71.71 0 0 1 .219.519Zm2.078.738a5.565 5.565 0 0 0-.246-1.367 2.992 2.992 0 0 0-.766-1.176 2.992 2.992 0 0 0-1.176-.766C9.652.771 9.197.698 8.668.68 8.158.643 7.31.625 6.125.625S4.083.643 3.555.68c-.51.018-.957.09-1.34.218a3.23 3.23 0 0 0-1.203.766c-.328.328-.575.72-.739 1.176-.127.383-.21.838-.246 1.367C.01 4.717 0 5.565 0 6.75s.01 2.042.027 2.57c.037.51.119.957.246 1.34.164.456.41.857.739 1.203.346.328.747.565 1.203.711.383.146.83.228 1.34.246.528.037 1.385.055 2.57.055 1.185 0 2.033-.018 2.543-.055.529-.018.984-.09 1.367-.218.456-.165.848-.41 1.176-.739a3.23 3.23 0 0 0 .766-1.203c.127-.383.2-.83.218-1.34.037-.528.055-1.385.055-2.57 0-1.185-.01-2.033-.027-2.543Zm-1.313 6.152c-.219.547-.61.94-1.176 1.176-.291.11-.783.182-1.476.219-.383.018-.948.027-1.695.027h-.875c-.73 0-1.295-.009-1.696-.027-.674-.037-1.166-.11-1.476-.219-.547-.219-.94-.61-1.176-1.176-.11-.31-.182-.802-.219-1.476a39.893 39.893 0 0 1-.027-1.695v-.875c0-.73.009-1.295.027-1.696.037-.693.11-1.185.219-1.476.219-.565.61-.957 1.176-1.176.31-.11.802-.182 1.476-.219.401-.018.966-.027 1.696-.027h.875c.729 0 1.294.009 1.695.027.693.037 1.185.11 1.476.219.566.219.957.61 1.176 1.176.11.291.182.783.219 1.476.018.383.027.948.027 1.696v.875c0 .729-.009 1.294-.027 1.695-.037.674-.11 1.167-.219 1.476Z"/></svg>