<svg xmlns="http://www.w3.org/2000/svg" width="13" height="13" fill="none"><path fill="#fff" d="M2.734 13H.191V4.824h2.543V13ZM1.477 3.703a1.42 1.42 0 0 1-1.04-.437A1.42 1.42 0 0 1 0 2.226c0-.4.146-.747.438-1.038A1.42 1.42 0 0 1 1.476.75c.4 0 .747.146 1.039.438.291.291.437.638.437 1.039 0 .4-.146.747-.437 1.039a1.42 1.42 0 0 1-1.04.437ZM12.25 13H9.707V9.008c0-.656-.055-1.13-.164-1.422-.2-.492-.592-.738-1.176-.738-.583 0-.993.218-1.23.656-.183.328-.274.811-.274 1.45V13H4.348V4.824H6.78v1.121h.028c.182-.364.474-.665.875-.902.437-.292.948-.438 1.53-.438 1.186 0 2.015.374 2.49 1.122.364.601.546 1.53.546 2.789V13Z"/></svg>