<svg xmlns="http://www.w3.org/2000/svg" width="40" height="49" fill="none"><path fill="#306199" d="M9.638 23.647v-9.725l10.363-5.957c3.458 1.986 6.908 3.972 10.363 5.957v15.06H2.15c-.352-.798-.712-1.585-1.003-2.403a19.895 19.895 0 0 1-.787-10.437 19.75 19.75 0 0 1 5.497-10.31A19.993 19.993 0 0 1 20.001 0c5.123 0 10.242 1.944 14.142 5.833A19.827 19.827 0 0 1 40 19.917c0 5.098-1.952 10.2-5.857 14.085L20.001 48.086 5.858 34.006a20.14 20.14 0 0 1-1.683-1.903H8.37L20 43.689 31.937 31.8a16.73 16.73 0 0 0 4.942-11.884c0-4.299-1.65-8.602-4.941-11.884A16.856 16.856 0 0 0 20 3.11a16.875 16.875 0 0 0-11.933 4.92 16.678 16.678 0 0 0-4.638 8.69 16.815 16.815 0 0 0 .783 9.144h23.026V15.708L20 11.545l-7.234 4.163v7.947H9.638v-.008Z"/></svg>