<svg xmlns="http://www.w3.org/2000/svg" width="15" height="13" fill="none"><path fill="#696969" d="M13.757 1.365c-1.63-1.552-4.286-1.552-5.918 0l-.339.322-.339-.322c-1.632-1.552-4.287-1.552-5.918 0C.44 2.127 0 3.138 0 4.211c0 1.074.441 2.084 1.243 2.847l5.895 5.597a.524.524 0 0 0 .724 0l5.895-5.597C14.56 6.296 15 5.285 15 4.21c0-1.073-.441-2.084-1.243-2.846Zm-.725 4.93L7.5 11.547 1.968 6.295a2.861 2.861 0 0 1-.915-2.084c0-.782.325-1.522.915-2.083a3.232 3.232 0 0 1 2.234-.879c.809 0 1.618.293 2.234.88l.701.666a.526.526 0 0 0 .725 0l.702-.667c1.232-1.172 3.236-1.172 4.468 0 .59.561.915 1.301.915 2.083 0 .783-.325 1.522-.915 2.084Z"/></svg>