<svg xmlns="http://www.w3.org/2000/svg" width="117" height="36" fill="none"><path fill="#fff" d="M50.456 10.771h2.782v13.23h-2.782v-5.439h-5.667V24h-2.782V10.771h2.782v5.402h5.667V10.77ZM60.75 24.183c-1.014 0-1.914-.192-2.699-.576a4.375 4.375 0 0 1-1.855-1.694c-.445-.745-.667-1.62-.667-2.628 0-1.507.482-2.697 1.446-3.57.965-.873 2.223-1.31 3.775-1.31 1.558 0 2.82.437 3.784 1.31s1.447 2.063 1.447 3.57c0 1.514-.483 2.71-1.447 3.59-.965.872-2.226 1.308-3.784 1.308Zm-.028-2.096c.78 0 1.407-.256 1.883-.77.482-.512.723-1.19.723-2.032 0-.842-.241-1.52-.723-2.032-.476-.513-1.104-.77-1.883-.77-.748 0-1.36.26-1.836.78-.47.512-.705 1.186-.705 2.022 0 .837.235 1.514.705 2.033.476.513 1.088.769 1.836.769ZM74.29 14.589h2.671V24H74.43l-.065-1.135c-.704.879-1.715 1.319-3.032 1.319-1.144 0-2.022-.281-2.634-.843-.612-.567-.918-1.373-.918-2.417V14.59h2.68v5.768c0 .585.158 1.016.473 1.29.321.275.736.412 1.243.412.618 0 1.122-.177 1.511-.53.396-.36.597-.944.603-1.75v-5.19ZM86.69 14.589l-4.192 7.379h4.062V24h-7.855l4.173-7.379H79.03V14.59h7.66ZM89.89 13.179c-.427 0-.792-.147-1.095-.44-.303-.299-.454-.659-.454-1.08 0-.415.151-.769.454-1.062.31-.299.674-.449 1.094-.449.415 0 .773.15 1.076.449.303.293.455.647.455 1.062 0 .421-.152.781-.455 1.08-.303.293-.661.44-1.076.44ZM88.525 24V14.59h2.69V24h-2.69ZM99.609 14.406c1.144 0 2.022.284 2.634.851.612.562.918 1.364.918 2.408V24h-2.68v-5.767c0-.593-.161-1.026-.483-1.3-.315-.275-.723-.413-1.224-.413-.29 0-.556.04-.797.12-.242.079-.464.204-.668.375-.204.165-.365.4-.483.705a3.33 3.33 0 0 0-.176 1.09V24h-2.67V14.59h2.67v1.043c.705-.817 1.691-1.226 2.959-1.226ZM112.324 14.589h2.541v8.706c0 .898-.121 1.679-.362 2.344-.235.665-.578 1.2-1.029 1.602-.452.41-.98.711-1.586.907-.606.195-1.299.293-2.078.293-2.516 0-4.155-.974-4.915-2.92l2.217-.935c.272.617.615 1.072 1.029 1.364.414.293.937.44 1.567.44 1.651 0 2.477-.968 2.477-2.902v-1.099c-.285.385-.687.696-1.206.934a4.051 4.051 0 0 1-1.688.348c-.587 0-1.147-.11-1.679-.33a4.375 4.375 0 0 1-1.382-.934 4.443 4.443 0 0 1-.945-1.483 5.186 5.186 0 0 1-.344-1.904c0-.69.115-1.325.344-1.904a4.24 4.24 0 0 1 .945-1.465 4.373 4.373 0 0 1 3.08-1.245c.655 0 1.242.13 1.762.393.525.257.921.601 1.187 1.035l.065-1.245Zm-4.1 6.225a2.37 2.37 0 0 0 1.753.724c.693 0 1.277-.244 1.753-.733.476-.488.714-1.083.714-1.785 0-.708-.238-1.306-.714-1.794-.47-.489-1.054-.733-1.753-.733-.705 0-1.292.241-1.762.723-.464.476-.695 1.078-.695 1.804 0 .714.235 1.312.704 1.794ZM7.322 17.704v-7.28l7.873-4.46c2.627 1.486 5.248 2.973 7.872 4.46v11.274H1.634c-.267-.598-.54-1.187-.762-1.8A14.72 14.72 0 0 1 4.45 4.366C7.42 1.457 11.31 0 15.196 0c3.891 0 7.78 1.456 10.744 4.367 2.966 2.914 4.449 6.73 4.449 10.544 0 3.817-1.483 7.636-4.45 10.545L15.196 36 4.45 25.458a15.162 15.162 0 0 1-1.28-1.424H6.36l8.836 8.674 9.068-8.9a12.433 12.433 0 0 0 3.754-8.897c0-3.218-1.254-6.44-3.754-8.897-2.504-2.46-5.789-3.687-9.068-3.687-3.28 0-6.562 1.23-9.066 3.684a12.43 12.43 0 0 0-3.524 6.505 12.417 12.417 0 0 0 .595 6.847h17.493V11.76c-1.837-1.04-3.668-2.079-5.498-3.117L9.699 11.76v5.95H7.322v-.006Z"/></svg>