<svg xmlns="http://www.w3.org/2000/svg" width="20" height="20" fill="none"><path fill="#306199" d="M14.374 20a5.573 5.573 0 0 1-1.912-.341A20.386 20.386 0 0 1 5.06 14.94 20.383 20.383 0 0 1 .342 7.538a5.532 5.532 0 0 1-.283-2.72A5.663 5.663 0 0 1 2.975.667 5.57 5.57 0 0 1 5.64 0c.295 0 .55.206.611.494l.981 4.578a.625.625 0 0 1-.169.573L5.388 7.32a16.451 16.451 0 0 0 7.29 7.29l1.677-1.675a.625.625 0 0 1 .573-.17l4.578.982a.625.625 0 0 1 .494.61 5.57 5.57 0 0 1-.666 2.667 5.663 5.663 0 0 1-4.153 2.915c-.27.04-.539.06-.807.06ZM5.142 1.277a4.329 4.329 0 0 0-3.096 1.845 4.306 4.306 0 0 0-.53 3.989A18.956 18.956 0 0 0 12.89 18.484a4.306 4.306 0 0 0 3.99-.53 4.33 4.33 0 0 0 1.844-3.096l-3.724-.798-1.751 1.75a.625.625 0 0 1-.708.124A17.697 17.697 0 0 1 4.066 7.46a.625.625 0 0 1 .123-.708l1.75-1.75-.797-3.725Z"/></svg>