<svg xmlns="http://www.w3.org/2000/svg" width="14" height="14" fill="none"><g fill="#696969" clip-path="url(#a)"><path d="M13.453 0h-4.04a.547.547 0 1 0 0 1.094h2.72L7.749 5.478a.547.547 0 1 0 .773.773l4.384-4.384v2.72a.547.547 0 0 0 1.094 0V.548A.548.548 0 0 0 13.453 0ZM6.25 7.749a.547.547 0 0 0-.772 0l-4.384 4.384v-2.72a.547.547 0 1 0-1.094 0v4.04c0 .297.242.547.547.547h4.041a.547.547 0 1 0 0-1.094h-2.72L6.25 8.522a.547.547 0 0 0 0-.773Z"/></g><defs><clipPath id="a"><path fill="#fff" d="M0 0h14v14H0z"/></clipPath></defs></svg>