<svg xmlns="http://www.w3.org/2000/svg" width="17" height="17" fill="none"><g fill="#696969" clip-path="url(#a)"><path d="M16.149.147.147 16.148A.5.5 0 0 0 .5 17h16.002a.499.499 0 0 0 .499-.499V.5a.5.5 0 0 0-.852-.353Zm-.146 15.855H1.705l2.538-2.538.695.695a.5.5 0 0 0 .706-.706l-.696-.694 1.424-1.424.695.695a.5.5 0 0 0 .706-.706l-.695-.694L8.5 9.206l.695.695a.5.5 0 0 0 .706-.706l-.695-.694 1.423-1.424.695.695a.5.5 0 0 0 .706-.706l-.695-.695 1.423-1.423.695.695a.5.5 0 0 0 .706-.706l-.695-.695 2.538-2.538v14.298Z"/><path d="M12.921 8.397 8.397 12.92a.5.5 0 0 0 .353.852h4.524a.499.499 0 0 0 .499-.499V8.75a.5.5 0 0 0-.852-.353Zm-.146 4.378h-2.82l2.82-2.82v2.82Z"/></g><defs><clipPath id="a"><path fill="#fff" d="M0 0h17v17H0z"/></clipPath></defs></svg>