<svg xmlns="http://www.w3.org/2000/svg" width="20" height="20" fill="none"><g clip-path="url(#a)"><path fill="#fff" d="M19.806.45a1.112 1.112 0 0 0-.112-.132l-.006-.006-.005-.005c-.226-.224-.541-.346-.905-.346-.207 0-.43.039-.66.116L1.122 5.742c-.9.3-1.064.824-1.081 1.109-.018.285.08.825.935 1.233l4.268 2.038-1.91 4.717a.487.487 0 0 0-.012.034c-.213.637-.127 1.21.234 1.57.231.232.548.35.913.35a2.09 2.09 0 0 0 .692-.127l4.717-1.91 2.038 4.267c.39.816.903.938 1.174.938.243 0 .842-.106 1.168-1.083l5.665-16.996c.187-.56.145-1.068-.117-1.432ZM1.308 6.93c.046-.024.107-.05.184-.076L17.73 1.442l-9.161 9.16a4.935 4.935 0 0 0-1.015-.675l-6.073-2.9a1.379 1.379 0 0 1-.173-.098Zm3.432 8.642c-.202.065-.317.054-.353.041-.013-.036-.024-.15.04-.353l1.877-4.632.745.356c.709.339 1.628 1.258 1.967 1.967l.356.745-4.632 1.876Zm8.406 2.936a1.367 1.367 0 0 1-.075.184c-.03-.043-.063-.1-.098-.174l-2.9-6.072a4.933 4.933 0 0 0-.676-1.015l9.161-9.16-5.412 16.237Z"/></g><defs><clipPath id="a"><path fill="#fff" d="M0 0h20v20H0z"/></clipPath></defs></svg>