<svg xmlns="http://www.w3.org/2000/svg" width="15" height="15" fill="none"><path fill="#696969" d="M13.81 9.522A7.026 7.026 0 0 0 12.018 8.4a.586.586 0 1 0-.476 1.071c.584.26 1.087.573 1.495.931.503.442.791 1.082.791 1.756v1.084a.587.587 0 0 1-.586.586H1.758a.587.587 0 0 1-.586-.586v-1.084c0-.674.288-1.314.791-1.756.592-.52 2.317-1.73 5.537-1.73a4.34 4.34 0 0 0 4.336-4.336A4.34 4.34 0 0 0 7.5 0a4.34 4.34 0 0 0-4.336 4.336A4.33 4.33 0 0 0 4.86 7.772c-1.885.414-3.057 1.212-3.67 1.75A3.508 3.508 0 0 0 0 12.158v1.084C0 14.212.788 15 1.758 15h11.484A1.76 1.76 0 0 0 15 13.242v-1.084a3.508 3.508 0 0 0-1.19-2.636ZM4.336 4.336A3.168 3.168 0 0 1 7.5 1.172a3.168 3.168 0 0 1 3.164 3.164A3.168 3.168 0 0 1 7.5 7.5a3.168 3.168 0 0 1-3.164-3.164Z"/></svg>